<svg width="26" height="33" viewBox="0 0 26 33" fill="none" xmlns="http://www.w3.org/2000/svg">
<g clip-path="url(#clip0_67_7924)">
<path d="M13.0013 19.5807C16.4941 19.5807 19.3346 16.7402 19.3346 13.2474C19.3346 9.75456 16.4941 6.91406 13.0013 6.91406C9.50847 6.91406 6.66797 9.75456 6.66797 13.2474C6.66797 16.7402 9.50847 19.5807 13.0013 19.5807ZM13.0013 10.0807C14.7477 10.0807 16.168 11.501 16.168 13.2474C16.168 14.9938 14.7477 16.4141 13.0013 16.4141C11.2549 16.4141 9.83464 14.9938 9.83464 13.2474C9.83464 11.501 11.2549 10.0807 13.0013 10.0807Z" fill="#2091F9"/>
<path d="M11.7485 31.9527C12.0164 32.1441 12.3375 32.247 12.6668 32.247C12.9961 32.247 13.3172 32.1441 13.5851 31.9527C14.0665 31.6123 25.3794 23.4439 25.3335 13.2472C25.3335 6.26315 19.6509 0.580566 12.6668 0.580566C5.68272 0.580566 0.000139393 6.26315 0.000139393 13.2393C-0.0457773 23.4439 11.2671 31.6123 11.7485 31.9527ZM12.6668 3.74723C17.9061 3.74723 22.1668 8.00798 22.1668 13.2551C22.2001 20.282 15.2191 26.5916 12.6668 28.661C10.1161 26.59 3.13356 20.2788 3.16681 13.2472C3.16681 8.00798 7.42756 3.74723 12.6668 3.74723Z" fill="#2091F9"/>
</g>
<defs>
<clipPath id="clip0_67_7924">
<rect width="26" height="32" fill="white" transform="translate(0 0.414062)"/>
</clipPath>
</defs>
</svg>
