<svg width="194" height="63" viewBox="0 0 194 63" fill="none" xmlns="http://www.w3.org/2000/svg">
<g clip-path="url(#clip0_66_4717)">
<path d="M187.716 38.5021L193.07 42.0529C191.332 44.5992 187.176 48.9679 179.99 48.9679C171.067 48.9679 164.422 42.0998 164.422 33.3627C164.422 24.0653 171.138 17.7578 179.239 17.7578C187.387 17.7578 191.379 24.2052 192.671 27.6859L193.375 29.4616L172.382 38.1049C173.979 41.2354 176.468 42.8239 179.99 42.8239C183.513 42.8239 185.955 41.0952 187.716 38.5021ZM171.255 32.8726L185.274 27.0788C184.499 25.1401 182.198 23.7619 179.45 23.7619C175.952 23.7619 171.091 26.8456 171.255 32.8726Z" fill="#FF302F"/>
<path d="M154.301 1.84901H161.063V47.5428H154.301V1.84863V1.84901Z" fill="#20B15A"/>
<path d="M143.639 18.9722H150.167V46.7249C150.167 58.2415 143.334 62.9837 135.256 62.9837C127.648 62.9837 123.069 57.8912 121.354 53.7565L127.342 51.28C128.422 53.8262 131.029 56.8401 135.256 56.8401C140.445 56.8401 143.639 53.6395 143.639 47.6594V45.4169H143.404C141.854 47.2855 138.896 48.9674 135.138 48.9674C127.295 48.9674 120.109 42.1694 120.109 33.4094C120.109 24.6021 127.295 17.7344 135.138 17.7344C138.872 17.7344 141.854 19.393 143.404 21.2151H143.639V18.9726V18.9722ZM144.108 33.4094C144.108 27.8961 140.422 23.878 135.725 23.878C130.982 23.878 126.99 27.8961 126.99 33.4094C126.99 38.8521 130.982 42.8001 135.725 42.8001C140.422 42.8237 144.109 38.8521 144.109 33.4094H144.108Z" fill="#3686F7"/>
<path d="M82.9856 33.2927C82.9856 42.2867 75.9411 48.8975 67.2994 48.8975C58.6582 48.8975 51.6133 42.2634 51.6133 33.2927C51.6133 24.2522 58.6582 17.6646 67.2994 17.6646C75.9411 17.6646 82.9856 24.2522 82.9856 33.2927ZM76.1288 33.2927C76.1288 27.6864 72.0426 23.8314 67.2994 23.8314C62.5562 23.8314 58.4701 27.6864 58.4701 33.2927C58.4701 38.8524 62.5562 42.7539 67.2994 42.7539C72.043 42.7539 76.1288 38.8524 76.1288 33.2927Z" fill="#FF302F"/>
<path d="M117.243 33.3627C117.243 42.3567 110.199 48.9676 101.557 48.9676C92.9156 48.9676 85.8711 42.3563 85.8711 33.3627C85.8711 24.3222 92.9156 17.7578 101.557 17.7578C110.199 17.7578 117.243 24.2989 117.243 33.3627ZM110.363 33.3627C110.363 27.7564 106.277 23.9014 101.533 23.9014C96.7903 23.9014 92.7041 27.7564 92.7041 33.3627C92.7041 38.9224 96.7903 42.8239 101.533 42.8239C106.3 42.8239 110.363 38.8992 110.363 33.3627Z" fill="#FFBA40"/>
<path d="M25.8287 42.1229C15.9894 42.1229 8.28753 34.2269 8.28753 24.4387C8.28753 14.6508 15.9894 6.75481 25.8287 6.75481C31.1358 6.75481 35.0101 8.83381 37.875 11.4971L42.5952 6.80168C38.6032 2.99393 33.2727 0.0966797 25.8287 0.0966797C12.35 0.0970547 1.00781 11.0302 1.00781 24.4387C1.00781 37.8479 12.35 48.7807 25.8287 48.7807C33.1084 48.7807 38.6032 46.3979 42.9005 41.9594C47.315 37.5674 48.6769 31.4002 48.6769 26.4011C48.6769 24.8358 48.4892 23.2241 48.2777 22.0327H25.8287V28.5269H41.8202C41.3505 32.5919 40.059 35.3718 38.1569 37.2637C35.8556 39.5767 32.2161 42.1229 25.8287 42.1229Z" fill="#3686F7"/>
</g>
<defs>
<clipPath id="clip0_66_4717">
<rect width="193" height="63" fill="white" transform="translate(0.726562)"/>
</clipPath>
</defs>
</svg>
