<?xml version="1.0" encoding="utf-8"?><svg viewBox="0 0 42 42" xmlns="http://www.w3.org/2000/svg" xmlns:xlink="http://www.w3.org/1999/xlink"><style>:root>svg{display:none}:root>svg:target{display:block}</style><svg viewBox="0 0 42 42" id="facebook" xmlns="http://www.w3.org/2000/svg"><path d="M35.752 4.99H6.292a1.28 1.28 0 00-1.28 1.28v29.46c0 .708.572 1.28 1.28 1.28h29.46a1.28 1.28 0 001.28-1.28V6.27a1.28 1.28 0 00-1.28-1.28zm-3.699 9.346h-2.557c-2.006 0-2.394.952-2.394 2.353v3.086h4.787l-.624 4.831h-4.163V37.01h-4.991v-12.4h-4.175v-4.835h4.175v-3.562c0-4.135 2.526-6.388 6.216-6.388 1.769 0 3.286.132 3.73.192v4.319h-.004z"/></svg><svg viewBox="0 0 42 42" id="linkedin" xmlns="http://www.w3.org/2000/svg"><path d="M35.736 4.99H6.276a1.28 1.28 0 00-1.28 1.28v29.46c0 .708.572 1.28 1.28 1.28h29.46a1.28 1.28 0 001.28-1.28V6.27a1.28 1.28 0 00-1.28-1.28zM14.494 32.275h-4.75V16.993h4.75v15.282zm-2.373-17.37a2.755 2.755 0 112.753-2.755 2.759 2.759 0 01-2.753 2.754zm20.16 17.37h-4.746v-7.432c0-1.774-.032-4.051-2.47-4.051-2.47 0-2.85 1.93-2.85 3.922v7.561h-4.743V16.993h4.555v2.09h.064c.633-1.201 2.182-2.47 4.495-2.47 4.811 0 5.696 3.166 5.696 7.28v8.382z"/></svg><svg viewBox="0 0 34 28" id="twitter" xmlns="http://www.w3.org/2000/svg"><path d="M33.684 3.685a13.687 13.687 0 01-3.93 1.057A6.809 6.809 0 0032.756.98a13.474 13.474 0 01-4.33 1.649A6.807 6.807 0 0023.437.47a6.823 6.823 0 00-6.824 6.83c0 .528.064 1.056.169 1.565A19.396 19.396 0 012.708 1.72a6.777 6.777 0 00-.928 3.446 6.83 6.83 0 003.042 5.688 6.884 6.884 0 01-3.086-.869v.085a6.826 6.826 0 005.471 6.7 7.26 7.26 0 01-1.797.232 9.07 9.07 0 01-1.289-.104 6.837 6.837 0 006.38 4.735 13.68 13.68 0 01-8.473 2.918c-.572 0-1.1-.02-1.65-.084a19.327 19.327 0 0010.484 3.062c12.552 0 19.42-10.399 19.42-19.425 0-.296 0-.592-.02-.888a14.7 14.7 0 003.422-3.53z"/></svg></svg>